<svg width="36" height="35" viewBox="0 0 51 50" fill="none" xmlns="http://www.w3.org/2000/svg">
<path d="M25.9858 8.61347e-08C21.0413 8.61347e-08 16.2078 1.46622 12.0965 4.21326C7.98531 6.9603 4.78099 10.8648 2.8888 15.4329C0.996611 20.0011 0.501528 25.0277 1.46616 29.8773C2.43079 34.7268 4.81181 39.1814 8.30812 42.6777C11.8044 46.174 16.259 48.555 21.1085 49.5196C25.9581 50.4843 30.9847 49.9892 35.5529 48.097C40.121 46.2048 44.0255 43.0005 46.7725 38.8893C49.5196 34.778 50.9858 29.9445 50.9858 25C50.9861 21.7169 50.3396 18.4659 49.0833 15.4326C47.8271 12.3993 45.9856 9.64324 43.6641 7.32172C41.3425 5.0002 38.5865 3.15873 35.5532 1.90246C32.5199 0.646186 29.2689 -0.000272447 25.9858 8.61347e-08ZM33.9346 37.8812C33.841 38.1145 33.6986 38.3251 33.517 38.4989C33.3354 38.6727 33.1187 38.8057 32.8814 38.8889C32.6442 38.9721 32.392 39.0037 32.1416 38.9814C31.8912 38.9592 31.6484 38.8837 31.4296 38.7599L24.6429 33.4865L20.2871 37.505C20.186 37.5797 20.0678 37.6277 19.9433 37.6447C19.8188 37.6618 19.692 37.6472 19.5746 37.6023L20.4096 30.1312L20.4363 30.1524L20.4534 30.0049C20.4534 30.0049 32.6659 18.8861 33.1634 18.4124C33.6671 17.9399 33.5009 17.8374 33.5009 17.8374C33.5296 17.2611 32.5971 17.8374 32.5971 17.8374L16.4158 28.2475L9.67706 25.9525C9.67706 25.9525 8.64207 25.5813 8.54457 24.765C8.44207 23.955 9.71079 23.515 9.71079 23.515L36.5033 12.8712C36.5033 12.8712 38.7058 11.8899 38.7058 13.515L33.9346 37.8812Z" fill="white"/>
</svg>
